HIERARCHY
ROOT Root
{
  OFFSET 0.0 0.0 0.0
  CHANNELS 6 Xposition Yposition Zposition Zrotation Yrotation Xrotation
  JOINT Hips
  {
    OFFSET 0.0 100.0 0.0
    CHANNELS 6 Xposition Yposition Zposition Zrotation Yrotation Xrotation
    JOINT Spine1
    {
      OFFSET 5.003913 -0.037094 -0.013727
      CHANNELS 3 Zrotation Yrotation Xrotation
      JOINT Spine2
      {
        OFFSET 7.125363 -1e-06 0.0
        CHANNELS 3 Zrotation Yrotation Xrotation
        JOINT Chest
        {
          OFFSET 7.594027 1e-06 0.0
          CHANNELS 3 Zrotation Yrotation Xrotation
          JOINT Neck1
          {
            OFFSET 26.313086 -0.460272 -0.181672
            CHANNELS 3 Zrotation Yrotation Xrotation
            JOINT Neck2
            {
              OFFSET 8.045911 0.0 0.0
              CHANNELS 3 Zrotation Yrotation Xrotation
              JOINT Head
              {
                OFFSET 6.432774 0.0 0.0
                CHANNELS 3 Zrotation Yrotation Xrotation
                JOINT HeadEnd
                {
                  OFFSET 16.169773 0.06451 0.00362
                  CHANNELS 3 Zrotation Yrotation Xrotation
                }
                JOINT Jaw
                {
                  OFFSET 0.108741 3.12938 0.002639
                  CHANNELS 3 Zrotation Yrotation Xrotation
                }
                JOINT LeftEye
                {
                  OFFSET 4.45173 8.166359 3.206392
                  CHANNELS 3 Zrotation Yrotation Xrotation
                }
                JOINT RightEye
                {
                  OFFSET 4.436895 8.135758 -3.222429
                  CHANNELS 3 Zrotation Yrotation Xrotation
                }
              }
            }
          }
          JOINT LeftShoulder
          {
            OFFSET 23.218927 5.195579 1.621656
            CHANNELS 3 Zrotation Yrotation Xrotation
            JOINT LeftArm
            {
              OFFSET 15.902118 2e-06 -2e-06
              CHANNELS 3 Zrotation Yrotation Xrotation
              JOINT LeftForeArm
              {
                OFFSET 28.739307 0.0 -1e-06
                CHANNELS 3 Zrotation Yrotation Xrotation
                JOINT LeftHand
                {
                  OFFSET 27.093981 -4e-06 0.0
                  CHANNELS 3 Zrotation Yrotation Xrotation
                  JOINT LeftHandThumb1
                  {
                    OFFSET 2.276781 3.380274 0.83384
                    CHANNELS 3 Zrotation Yrotation Xrotation
                    JOINT LeftHandThumb2
                    {
                      OFFSET 4.705309 -1e-06 -1e-06
                      CHANNELS 3 Zrotation Yrotation Xrotation
                      JOINT LeftHandThumb3
                      {
                        OFFSET 2.798515 0.0 3e-06
                        CHANNELS 3 Zrotation Yrotation Xrotation
                        JOINT LeftHandThumbEnd
                        {
                          OFFSET 3.180793 4e-06 -4e-06
                          CHANNELS 3 Zrotation Yrotation Xrotation
                        }
                      }
                    }
                  }
                  JOINT LeftHandIndex1
                  {
                    OFFSET 3.247786 2.352677 0.137192
                    CHANNELS 3 Zrotation Yrotation Xrotation
                    JOINT LeftHandIndex2
                    {
                      OFFSET 6.367095 1e-06 0.0
                      CHANNELS 3 Zrotation Yrotation Xrotation
                      JOINT LeftHandIndex3
                      {
                        OFFSET 3.662364 0.0 0.0
                        CHANNELS 3 Zrotation Yrotation Xrotation
                        JOINT LeftHandIndex4
                        {
                          OFFSET 2.329242 4e-06 -4e-06
                          CHANNELS 3 Zrotation Yrotation Xrotation
                          JOINT LeftHandIndexEnd
                          {
                            OFFSET 2.767823 1e-06 0.0
                            CHANNELS 3 Zrotation Yrotation Xrotation
                          }
                        }
                      }
                    }
                  }
                  JOINT LeftHandMiddle1
                  {
                    OFFSET 3.163612 0.945023 -0.406112
                    CHANNELS 3 Zrotation Yrotation Xrotation
                    JOINT LeftHandMiddle2
                    {
                      OFFSET 6.276789 3e-06 0.0
                      CHANNELS 3 Zrotation Yrotation Xrotation
                      JOINT LeftHandMiddle3
                      {
                        OFFSET 4.35652 -1e-06 4e-06
                        CHANNELS 3 Zrotation Yrotation Xrotation
                        JOINT LeftHandMiddle4
                        {
                          OFFSET 2.996877 0.0 8e-06
                          CHANNELS 3 Zrotation Yrotation Xrotation
                          JOINT LeftHandMiddleEnd
                          {
                            OFFSET 2.323256 3e-06 -4e-06
                            CHANNELS 3 Zrotation Yrotation Xrotation
                          }
                        }
                      }
                    }
                  }
                  JOINT LeftHandRing1
                  {
                    OFFSET 2.882606 -0.309162 0.107445
                    CHANNELS 3 Zrotation Yrotation Xrotation
                    JOINT LeftHandRing2
                    {
                      OFFSET 6.033198 0.0 4e-06
                      CHANNELS 3 Zrotation Yrotation Xrotation
                      JOINT LeftHandRing3
                      {
                        OFFSET 4.350578 3e-06 0.0
                        CHANNELS 3 Zrotation Yrotation Xrotation
                        JOINT LeftHandRing4
                        {
                          OFFSET 2.651321 2e-06 -7e-06
                          CHANNELS 3 Zrotation Yrotation Xrotation
                          JOINT LeftHandRingEnd
                          {
                            OFFSET 1.937663 1e-06 -4e-06
                            CHANNELS 3 Zrotation Yrotation Xrotation
                          }
                        }
                      }
                    }
                  }
                  JOINT LeftHandPinky1
                  {
                    OFFSET 2.865315 -1.525436 0.575687
                    CHANNELS 3 Zrotation Yrotation Xrotation
                    JOINT LeftHandPinky2
                    {
                      OFFSET 5.54936 1e-06 -8e-06
                      CHANNELS 3 Zrotation Yrotation Xrotation
                      JOINT LeftHandPinky3
                      {
                        OFFSET 3.070974 0.0 -4e-06
                        CHANNELS 3 Zrotation Yrotation Xrotation
                        JOINT LeftHandPinky4
                        {
                          OFFSET 1.549672 1e-06 0.0
                          CHANNELS 3 Zrotation Yrotation Xrotation
                          JOINT LeftHandPinkyEnd
                          {
                            OFFSET 1.952123 0.0 0.0
                            CHANNELS 3 Zrotation Yrotation Xrotation
                          }
                        }
                      }
                    }
                  }
                }
              }
            }
          }
          JOINT RightShoulder
          {
            OFFSET 23.161716 5.296122 -1.380114
            CHANNELS 3 Zrotation Yrotation Xrotation
            JOINT RightArm
            {
              OFFSET -16.027195 -2e-06 1.1e-05
              CHANNELS 3 Zrotation Yrotation Xrotation
              JOINT RightForeArm
              {
                OFFSET -28.736639 4e-06 2e-06
                CHANNELS 3 Zrotation Yrotation Xrotation
                JOINT RightHand
                {
                  OFFSET -27.133619 6e-06 0.0
                  CHANNELS 3 Zrotation Yrotation Xrotation
                  JOINT RightHandThumb1
                  {
                    OFFSET -2.274328 -3.351035 -0.83067
                    CHANNELS 3 Zrotation Yrotation Xrotation
                    JOINT RightHandThumb2
                    {
                      OFFSET -4.703594 -3e-06 2e-06
                      CHANNELS 3 Zrotation Yrotation Xrotation
                      JOINT RightHandThumb3
                      {
                        OFFSET -2.794935 -4e-06 -3e-06
                        CHANNELS 3 Zrotation Yrotation Xrotation
                        JOINT RightHandThumbEnd
                        {
                          OFFSET -3.183852 4e-06 1e-06
                          CHANNELS 3 Zrotation Yrotation Xrotation
                        }
                      }
                    }
                  }
                  JOINT RightHandIndex1
                  {
                    OFFSET -3.253496 -2.33755 -0.127667
                    CHANNELS 3 Zrotation Yrotation Xrotation
                    JOINT RightHandIndex2
                    {
                      OFFSET -6.344434 0.0 0.0
                      CHANNELS 3 Zrotation Yrotation Xrotation
                      JOINT RightHandIndex3
                      {
                        OFFSET -3.654871 0.0 -8e-06
                        CHANNELS 3 Zrotation Yrotation Xrotation
                        JOINT RightHandIndex4
                        {
                          OFFSET -2.327586 -1e-06 0.0
                          CHANNELS 3 Zrotation Yrotation Xrotation
                          JOINT RightHandIndexEnd
                          {
                            OFFSET -2.770001 3e-06 8e-06
                            CHANNELS 3 Zrotation Yrotation Xrotation
                          }
                        }
                      }
                    }
                  }
                  JOINT RightHandMiddle1
                  {
                    OFFSET -3.168223 -0.944764 0.411762
                    CHANNELS 3 Zrotation Yrotation Xrotation
                    JOINT RightHandMiddle2
                    {
                      OFFSET -6.266691 -1e-06 -4e-06
                      CHANNELS 3 Zrotation Yrotation Xrotation
                      JOINT RightHandMiddle3
                      {
                        OFFSET -4.348901 0.0 0.0
                        CHANNELS 3 Zrotation Yrotation Xrotation
                        JOINT RightHandMiddle4
                        {
                          OFFSET -3.00024 2e-06 -4e-06
                          CHANNELS 3 Zrotation Yrotation Xrotation
                          JOINT RightHandMiddleEnd
                          {
                            OFFSET -2.321477 -4e-06 -4e-06
                            CHANNELS 3 Zrotation Yrotation Xrotation
                          }
                        }
                      }
                    }
                  }
                  JOINT RightHandRing1
                  {
                    OFFSET -2.885654 0.293261 -0.119232
                    CHANNELS 3 Zrotation Yrotation Xrotation
                    JOINT RightHandRing2
                    {
                      OFFSET -6.032835 -1e-06 -4e-06
                      CHANNELS 3 Zrotation Yrotation Xrotation
                      JOINT RightHandRing3
                      {
                        OFFSET -4.33881 0.0 -4e-06
                        CHANNELS 3 Zrotation Yrotation Xrotation
                        JOINT RightHandRing4
                        {
                          OFFSET -2.654903 -4e-06 -4e-06
                          CHANNELS 3 Zrotation Yrotation Xrotation
                          JOINT RightHandRingEnd
                          {
                            OFFSET -1.935122 0.0 4e-06
                            CHANNELS 3 Zrotation Yrotation Xrotation
                          }
                        }
                      }
                    }
                  }
                  JOINT RightHandPinky1
                  {
                    OFFSET -2.866241 1.503904 -0.60527
                    CHANNELS 3 Zrotation Yrotation Xrotation
                    JOINT RightHandPinky2
                    {
                      OFFSET -5.553177 -2e-06 0.0
                      CHANNELS 3 Zrotation Yrotation Xrotation
                      JOINT RightHandPinky3
                      {
                        OFFSET -3.062664 -1e-06 -4e-06
                        CHANNELS 3 Zrotation Yrotation Xrotation
                        JOINT RightHandPinky4
                        {
                          OFFSET -1.546529 2e-06 4e-06
                          CHANNELS 3 Zrotation Yrotation Xrotation
                          JOINT RightHandPinkyEnd
                          {
                            OFFSET -1.952341 0.0 -4e-06
                            CHANNELS 3 Zrotation Yrotation Xrotation
                          }
                        }
                      }
                    }
                  }
                }
              }
            }
          }
        }
      }
    }
    JOINT LeftLeg
    {
      OFFSET -8.443107 2.567604 10.043214
      CHANNELS 3 Zrotation Yrotation Xrotation
      JOINT LeftShin
      {
        OFFSET 43.229198 1e-06 -1e-06
        CHANNELS 3 Zrotation Yrotation Xrotation
        JOINT LeftFoot
        {
          OFFSET 42.298611 1e-06 1e-06
          CHANNELS 3 Zrotation Yrotation Xrotation
          JOINT LeftToeBase
          {
            OFFSET 14.165858 1e-06 0.0
            CHANNELS 3 Zrotation Yrotation Xrotation
            JOINT LeftToeEnd
            {
              OFFSET 6.7141 -0.234461 0.0
              CHANNELS 3 Zrotation Yrotation Xrotation
            }
          }
        }
      }
    }
    JOINT RightLeg
    {
      OFFSET -8.303923 2.592729 -10.047278
      CHANNELS 3 Zrotation Yrotation Xrotation
      JOINT RightShin
      {
        OFFSET -43.369682 0.0 1e-06
        CHANNELS 3 Zrotation Yrotation Xrotation
        JOINT RightFoot
        {
          OFFSET -42.260784 4e-06 2e-06
          CHANNELS 3 Zrotation Yrotation Xrotation
          JOINT RightToeBase
          {
            OFFSET -14.222245 -2e-06 -1e-06
            CHANNELS 3 Zrotation Yrotation Xrotation
            JOINT RightToeEnd
            {
              OFFSET -6.660062 0.232574 -2e-06
              CHANNELS 3 Zrotation Yrotation Xrotation
            }
          }
        }
      }
    }
  }
}
MOTION
Frames: 4
Frame Time: 0.03333333333333333
0.0 0.0 0.0 0.0 -0.0 0.0 -27.844833 49.958813 341.86264 87.739746 -39.329887 88.558342 21.317831 -1.502678 1.292966 -3.449468 -0.095587 1.614337 23.385733 -1.790464 -0.379897 10.901523 3.68101 2.227113 -2.717458 -0.706542 0.905352 -37.745468 0.516641 0.495041 4e-06 0.0 0.0 -0.219502 -0.046736 0.036765 0.331849 -0.125758 0.185518 0.448075 0.01859 -0.115303 40.975365 -76.02964 -33.700443 75.77623 -13.708314 -39.868538 12.852938 -0.630542 0.073481 21.001543 60.914074 22.560802 17.636623 -26.322733 52.411194 -19.466658 -14.395597 29.410381 -0.0 -8.774822 -1e-06 15.144734 -18.656446 6.21298 -0.609776 -1.795653 -3.889328 -4.807087 -11.046809 -2.937847 2e-06 -20.976011 -1e-06 -5.01997 -25.033556 -4.031876 6e-06 0.0 2e-06 -10.634531 -5.686969 -3.565587 10.573271 -17.922951 -3.113899 3e-06 -13.821206 0.0 -0.50178 -31.181505 -4.027012 -12.149385 -58.957878 8.275826 -13.982714 -7.150198 -2.875042 13.772727 -8.40149 -3.21824 0.347732 -34.211544 0.771654 -0.963029 -17.733368 2.621021 -0.0 0.0 -1e-06 -17.346416 -20.095215 -4.20178 21.757563 -1.638376 3.866426 0.0 -6.338824 2e-06 -1.697588 -22.591742 -6.194007 0.0 -5e-06 -3e-06 -126.025772 -70.245262 -47.772381 54.216267 2.969056 -37.335934 17.733881 -1.004101 -0.436796 11.094174 44.997402 15.032898 22.182114 -20.375895 49.933308 -16.701807 -16.743526 28.476524 -1e-06 -12.690597 0.0 15.468509 -17.195269 2.915595 -0.10592 -1.513855 -4.27588 -5.03904 -5.612872 -2.953556 4e-06 -11.020518 -2e-06 -6.111296 -15.895329 -3.840468 -0.0 1e-06 -1e-06 -10.283367 -5.680285 -4.341838 11.028293 -11.302402 -2.372632 -1.384269 -14.238583 -6.32012 -0.625439 -26.924183 -3.827597 -3.586581 -49.68166 -3.796228 -13.708522 -7.363475 -3.720938 18.141146 -14.052736 -3.242675 5e-06 -18.787266 -0.0 -0.429712 -8.456043 2.555503 0.0 1e-06 0.0 -15.923534 -20.094479 -5.473583 30.419207 -7.190825 1.735925 3e-06 -8.162922 0.0 -1.861903 -22.861464 -6.167939 0.0 -3e-06 -0.0 118.804337 -4.140476 10.709851 128.881027 0.188829 0.589335 -59.102726 5.955385 -5.309163 -7.23052 1.475081 2.259194 -0.999999 -0.0 -0.0 -23.185251 -0.334739 1.130434 85.985329 -2.085643 0.395786 -38.311581 20.084059 -3.627956 0.087815 0.251931 1.796424 -1.000003 -0.0 0.0 
0.0 0.0 0.0 0.0 -0.0 0.0 -27.214226 49.661873 345.390045 88.399933 -39.618263 86.059196 20.995279 -1.725076 1.3255 -3.571687 -0.104449 2.00097 23.471869 -2.114798 -0.107423 10.93816 3.380037 2.175716 -2.626816 -0.704647 1.456426 -37.218681 0.951152 1.182289 6e-06 -0.0 -0.0 -0.206296 -0.092719 0.068015 0.32386 -0.187066 0.218961 0.443214 -0.013509 -0.084191 45.462086 -77.389229 -37.80212 74.777298 -16.644562 -39.579407 14.112798 -0.593015 -0.032422 24.368219 62.999352 28.111162 17.636637 -26.322725 52.411182 -19.466663 -14.395596 29.410385 -0.0 -8.774821 -2e-06 15.478931 -18.634933 5.993784 -0.609776 -1.795655 -3.889328 -4.807088 -11.046811 -2.93785 5e-06 -20.976015 -1e-06 -5.019969 -25.033556 -4.03188 6e-06 0.0 -0.0 -10.634534 -5.68697 -3.565588 10.573275 -17.922951 -3.113901 3e-06 -13.821205 3e-06 -0.501779 -31.181505 -4.027013 -11.834245 -59.170551 7.947278 -13.982712 -7.150195 -2.875041 13.772728 -8.401493 -3.218242 0.347739 -34.211544 0.771654 -0.963027 -17.733368 2.62102 0.0 0.0 -0.0 -17.346416 -20.095213 -4.201783 21.757557 -1.63838 3.866428 1e-06 -6.338823 0.0 -1.69759 -22.591743 -6.194003 1e-06 -3e-06 -4e-06 -129.07547 -68.923515 -45.543411 56.496265 3.125693 -34.76757 13.070727 -1.179551 -0.29815 6.702499 42.204849 9.155629 22.182114 -20.375885 49.9333 -16.701811 -16.743528 28.476521 -2e-06 -12.6906 -1e-06 15.240645 -17.091261 3.038442 -0.105919 -1.513854 -4.275881 -5.039041 -5.612874 -2.953556 4e-06 -11.020523 -1e-06 -6.111298 -15.895334 -3.840467 1e-06 1e-06 -1e-06 -10.283369 -5.680288 -4.341837 11.028294 -11.302401 -2.372633 -1.384269 -14.238579 -6.320119 -0.625438 -26.924183 -3.8276 -3.561297 -49.512428 -3.735872 -13.708525 -7.363472 -3.720938 18.14115 -14.052736 -3.242675 6e-06 -18.78727 -1e-06 -0.429712 -8.456043 2.555503 -0.0 -0.0 0.0 -15.923538 -20.094479 -5.473583 30.419214 -7.190824 1.735926 3e-06 -8.162927 -1e-06 -1.861901 -22.861467 -6.167943 -0.0 -3e-06 -1e-06 118.10463 -3.814371 9.068383 126.730377 0.439345 0.80805 -55.070007 9.314437 -5.864162 -8.115851 1.476781 2.100876 -0.999998 0.0 0.0 -19.517653 -1.013049 3.127717 82.221848 -2.529278 0.471209 -38.190819 19.013969 -5.35335 0.691453 0.25759 1.829372 -1.000002 1e-06 -0.0 
0.0 0.0 0.0 0.0 -0.0 0.0 -26.691986 49.657013 349.063171 89.895439 -40.232162 84.293808 20.544762 -1.890379 1.075542 -3.731162 -0.304095 1.85678 23.476103 -2.350809 -0.451262 10.614658 3.578644 2.283059 -2.554935 -0.638847 1.860409 -36.452194 1.118348 1.587384 6e-06 -0.0 0.0 -0.210165 -0.065129 0.036835 0.212978 -0.177648 0.154771 0.329198 0.033808 -0.079396 56.271202 -78.065887 -47.932922 71.743675 -19.7836 -39.908787 16.610279 -0.267335 -0.076611 29.30353 63.828049 33.957596 17.636627 -26.322733 52.41119 -19.46666 -14.395596 29.410389 2e-06 -8.774819 -1e-06 15.881107 -18.543552 5.713591 -0.609776 -1.795652 -3.889327 -4.807089 -11.04681 -2.937851 3e-06 -20.976015 0.0 -5.01997 -25.033558 -4.031879 6e-06 0.0 0.0 -10.634533 -5.686969 -3.565589 10.573271 -17.922947 -3.1139 4e-06 -13.821203 1e-06 -0.501778 -31.181501 -4.027016 -11.383595 -59.13855 7.242744 -13.982712 -7.150196 -2.875043 13.772726 -8.40149 -3.218241 0.347733 -34.211544 0.771654 -0.963029 -17.733368 2.621021 -0.0 0.0 -0.0 -17.346415 -20.095217 -4.201785 21.757555 -1.638375 3.866431 1e-06 -6.338823 -1e-06 -1.697588 -22.591745 -6.194006 0.0 -4e-06 -4e-06 -131.379257 -69.292862 -43.587635 60.147659 2.048503 -33.269608 11.285886 -0.729369 -0.140774 5.282171 43.021008 6.695463 22.182114 -20.375895 49.933319 -16.701813 -16.74353 28.47653 -1e-06 -12.6906 -1e-06 15.1607 -17.147619 3.216367 -0.105918 -1.513855 -4.275882 -5.039041 -5.612872 -2.953556 5e-06 -11.020519 -3e-06 -6.111297 -15.89533 -3.840472 -0.0 0.0 -1e-06 -10.283371 -5.680286 -4.341838 11.028296 -11.302402 -2.372633 -1.384269 -14.23858 -6.320119 -0.625438 -26.924187 -3.827602 -3.721617 -49.618843 -3.629056 -13.708525 -7.363475 -3.720939 18.14115 -14.052739 -3.242673 7e-06 -18.78727 -3e-06 -0.429711 -8.456042 2.555504 -0.0 -0.0 -0.0 -15.923536 -20.094482 -5.473584 30.41921 -7.190827 1.735924 3e-06 -8.162925 1e-06 -1.861904 -22.861467 -6.167941 1e-06 -4e-06 -0.0 120.161331 -2.589737 6.608531 123.321907 0.737209 0.807558 -51.753685 11.338135 -6.385819 -7.402453 1.437124 2.113116 -0.999998 0.0 -0.0 -17.859793 -2.696815 3.808069 80.531693 -3.014642 0.501222 -37.861027 16.687246 -7.73499 1.169647 0.266944 1.923808 -1.0 -0.0 0.0 
0.0 0.0 0.0 0.0 -0.0 0.0 -26.295084 50.023781 352.507721 91.86998 -40.988842 83.036995 20.167765 -1.927752 0.774927 -3.832427 -0.494054 1.428704 23.560884 -2.630819 -1.01669 9.600303 3.941766 2.41521 -2.547242 -0.703088 2.017148 -35.466606 0.993169 1.669282 7e-06 -0.0 0.0 -0.210264 0.00144 -0.017806 0.12141 -0.113009 0.061204 0.217388 0.108345 -0.094694 68.494202 -77.733589 -59.637478 67.92881 -22.834095 -40.975143 20.235712 0.53293 -0.02266 32.886532 62.818718 36.668896 17.636635 -26.322741 52.411221 -19.466663 -14.395602 29.410395 -0.0 -8.774824 -2e-06 15.801679 -18.523294 5.710923 -0.609776 -1.795651 -3.88933 -4.807088 -11.04681 -2.93785 3e-06 -20.976019 -2e-06 -5.019968 -25.03356 -4.031883 6e-06 0.0 -0.0 -10.634538 -5.686969 -3.565589 10.573278 -17.922951 -3.113903 4e-06 -13.821205 2e-06 -0.501776 -31.181505 -4.027017 -11.086069 -58.964375 6.705685 -13.982715 -7.150194 -2.875046 13.772729 -8.401493 -3.218242 0.347737 -34.211555 0.771656 -0.963028 -17.73337 2.621021 -0.0 0.0 1e-06 -17.34642 -20.095217 -4.201786 21.757565 -1.638376 3.86643 1e-06 -6.338825 1e-06 -1.697589 -22.591745 -6.194004 0.0 -4e-06 -2e-06 -132.696793 -70.342438 -42.285168 63.599354 0.803915 -32.919472 10.517237 -0.134542 -0.031802 5.918775 45.844688 6.71202 22.182121 -20.375896 49.933331 -16.701813 -16.74353 28.476538 -3e-06 -12.690601 -1e-06 15.165694 -17.307972 3.395639 -0.105921 -1.513855 -4.275882 -5.039043 -5.612871 -2.953558 5e-06 -11.020525 -3e-06 -6.111298 -15.895339 -3.840472 -0.0 -0.0 1e-06 -10.283373 -5.68029 -4.341842 11.028296 -11.302403 -2.372633 -1.384269 -14.238583 -6.320123 -0.625438 -26.924192 -3.827603 -3.926893 -49.810791 -3.540291 -13.708529 -7.363478 -3.720942 18.141151 -14.05274 -3.242674 6e-06 -18.787275 -2e-06 -0.429712 -8.456045 2.555504 -0.0 -0.0 -1e-06 -15.923539 -20.094486 -5.473588 30.419222 -7.190827 1.735929 2e-06 -8.162929 -0.0 -1.861902 -22.861475 -6.167943 0.0 -3e-06 -2e-06 123.456726 -0.786329 4.653335 119.174156 0.952483 0.637325 -49.138668 12.984811 -6.763673 -6.332199 1.398055 2.188308 -1.0 -1e-06 -0.0 -18.846897 -4.556359 3.610336 82.074989 -3.391905 0.432229 -37.951958 13.880348 -9.521993 1.41101 0.19236 2.038159 -1.000001 1e-06 -0.0 
